<?xml version="1.0" encoding="utf-8"?>
<!-- Generator: Adobe Illustrator 19.0.0, SVG Export Plug-In . SVG Version: 6.00 Build 0)  -->
<svg version="1.1" id="Layer_1" xmlns="http://www.w3.org/2000/svg" xmlns:xlink="http://www.w3.org/1999/xlink" x="0px" y="0px"
	 viewBox="0 0 32 32" style="enable-background:new 0 0 32 32;" xml:space="preserve">
<style type="text/css">
	.st0{fill:none;stroke:#000000;stroke-linejoin:round;}
	.st1{fill:none;stroke:#000000;}
</style>
<g id="Group_8" transform="translate(-877.992 -549)">
	<g id="Khinkali" transform="translate(363.933 133.97)">
		<path id="Path_1" class="st0" d="M414.5,510.3h8l1.8,5.8c0,0,12.8,5,12.8,11.6c0,6.6-6.3,10.4-18.7,10.4
			c-12.4,0-18.7-4.2-18.3-10.4c0.3-6.1,12.4-11.6,12.4-11.6L414.5,510.3z"/>
		<path id="Path_2" class="st1" d="M400.9,516.7"/>
		<path id="Path_3" class="st1" d="M412.5,521.4c0,0-2,7.5-3.9,9c-2,1.5-3.6,0.3-3-2.2C406.1,525.7,412.5,521.4,412.5,521.4z"/>
		<path id="Path_4" class="st1" d="M424.4,521.6c0,0,6.5,4.2,7.4,6.5s-0.8,3.5-3,2.2C426.5,529,424.4,521.6,424.4,521.6z"/>
		<path id="Path_5" class="st1" d="M418.4,520.6c0,0,2.8,7.2,2.1,9.6c-0.7,2.4-2.7,2.4-3.8,0C415.7,527.8,418.4,520.6,418.4,520.6z"
			/>
	</g>
</g>
<g id="Group_8_1_" transform="translate(-877.992 -549)">
	<g id="Khinkali_1_" transform="translate(363.933 133.97)">
		<path id="Path_1_1_" class="st0" d="M526.7,419.8h6.5l1.5,4.7c0,0,10.3,4,10.3,9.4s-5.1,8.4-15.1,8.4c-10.1,0-15.1-3.4-14.9-8.4
			c0.3-5,10.1-9.4,10.1-9.4L526.7,419.8z"/>
		<path id="Path_2_1_" class="st1" d="M515.7,425"/>
		<path id="Path_3_1_" class="st1" d="M525.1,428.8c0,0-1.6,6.1-3.2,7.3s-2.9,0.3-2.5-1.8C519.9,432.2,525.1,428.8,525.1,428.8z"/>
		<path id="Path_4_1_" class="st1" d="M534.8,429c0,0,5.3,3.4,6,5.3s-0.6,2.9-2.5,1.8C536.4,435,534.8,429,534.8,429z"/>
		<path id="Path_5_1_" class="st1" d="M529.9,428.1c0,0,2.3,5.8,1.7,7.8c-0.6,1.9-2.2,1.9-3,0C527.8,434,529.9,428.1,529.9,428.1z"
			/>
	</g>
</g>
</svg>
